<mxfile host="65bd71144e">
    <diagram id="pqyLLuOsQXCR7VOxjKKH" name="Page-1">
        <mxGraphModel dx="881" dy="578" grid="1" gridSize="10" guides="1" tooltips="1" connect="1" arrows="1" fold="1" page="1" pageScale="1" pageWidth="827" pageHeight="1169" math="0" shadow="0">
            <root>
                <mxCell id="0"/>
                <mxCell id="1" parent="0"/>
                <mxCell id="3" value="Property" style="text;html=1;fillColor=none;align=center;verticalAlign=middle;whiteSpace=wrap;rounded=0;strokeColor=#f0f0f0;" vertex="1" parent="1">
                    <mxGeometry x="500" y="90" width="170" height="30" as="geometry"/>
                </mxCell>
                <mxCell id="4" value="-muniName&lt;br&gt;-muniNum&lt;br&gt;-lotNum&lt;br&gt;-secNum&lt;br&gt;-name&lt;br&gt;-owner&lt;br&gt;-area" style="rounded=0;whiteSpace=wrap;html=1;strokeColor=#f0f0f0;align=left;" vertex="1" parent="1">
                    <mxGeometry x="500" y="120" width="170" height="110" as="geometry"/>
                </mxCell>
                <mxCell id="6" value="+getMuniName&lt;br&gt;+getMuniNum&lt;br&gt;+getLotNum&lt;br&gt;+getSecNum&lt;br&gt;+getName&lt;br&gt;+setName&lt;br&gt;+getOwner&lt;br&gt;+setOwner&lt;br&gt;+getArea&lt;br&gt;+identicatorString&lt;br&gt;" style="rounded=0;whiteSpace=wrap;html=1;strokeColor=#f0f0f0;align=left;" vertex="1" parent="1">
                    <mxGeometry x="500" y="230" width="170" height="150" as="geometry"/>
                </mxCell>
                <mxCell id="7" value="PropertyRecord" style="rounded=0;whiteSpace=wrap;html=1;strokeColor=#f0f0f0;" vertex="1" parent="1">
                    <mxGeometry x="50" y="90" width="150" height="30" as="geometry"/>
                </mxCell>
                <mxCell id="8" value="-propertyRecord" style="rounded=0;whiteSpace=wrap;html=1;strokeColor=#f0f0f0;align=left;" vertex="1" parent="1">
                    <mxGeometry x="50" y="120" width="150" height="30" as="geometry"/>
                </mxCell>
                <mxCell id="9" value="+size&lt;br&gt;+getProperty&lt;br&gt;+addProperty&lt;br&gt;+removeProperty&lt;br&gt;+calcAvgPropertyArea&lt;br&gt;+listAllProperties&lt;br&gt;+findPropertyByLotNumber" style="rounded=0;whiteSpace=wrap;html=1;strokeColor=#f0f0f0;align=left;" vertex="1" parent="1">
                    <mxGeometry x="50" y="150" width="150" height="110" as="geometry"/>
                </mxCell>
                <mxCell id="10" value="" style="endArrow=none;html=1;entryX=0;entryY=0.5;entryDx=0;entryDy=0;" edge="1" parent="1" target="4">
                    <mxGeometry width="50" height="50" relative="1" as="geometry">
                        <mxPoint x="240" y="175" as="sourcePoint"/>
                        <mxPoint x="380" y="210" as="targetPoint"/>
                    </mxGeometry>
                </mxCell>
                <mxCell id="11" value="" style="rhombus;whiteSpace=wrap;html=1;strokeColor=#f0f0f0;" vertex="1" parent="1">
                    <mxGeometry x="200" y="160" width="50" height="30" as="geometry"/>
                </mxCell>
                <mxCell id="12" value="0..1" style="text;html=1;strokeColor=none;fillColor=none;align=center;verticalAlign=middle;whiteSpace=wrap;rounded=0;" vertex="1" parent="1">
                    <mxGeometry x="205" y="140" width="40" height="20" as="geometry"/>
                </mxCell>
                <mxCell id="13" value="0..*" style="text;html=1;strokeColor=none;fillColor=none;align=center;verticalAlign=middle;whiteSpace=wrap;rounded=0;" vertex="1" parent="1">
                    <mxGeometry x="450" y="150" width="40" height="20" as="geometry"/>
                </mxCell>
                <mxCell id="14" value="Menu" style="rounded=0;whiteSpace=wrap;html=1;strokeColor=#f0f0f0;" vertex="1" parent="1">
                    <mxGeometry x="300" y="340" width="120" height="30" as="geometry"/>
                </mxCell>
                <mxCell id="15" value="-scanner&lt;br&gt;-question&lt;br&gt;-oprtions" style="rounded=0;whiteSpace=wrap;html=1;strokeColor=#f0f0f0;align=left;" vertex="1" parent="1">
                    <mxGeometry x="300" y="370" width="120" height="50" as="geometry"/>
                </mxCell>
                <mxCell id="16" value="+promptUser" style="rounded=0;whiteSpace=wrap;html=1;strokeColor=#f0f0f0;align=left;" vertex="1" parent="1">
                    <mxGeometry x="300" y="420" width="120" height="20" as="geometry"/>
                </mxCell>
                <mxCell id="17" value="TestData" style="rounded=0;whiteSpace=wrap;html=1;strokeColor=#f0f0f0;" vertex="1" parent="1">
                    <mxGeometry x="300" y="460" width="120" height="30" as="geometry"/>
                </mxCell>
                <mxCell id="18" value="+data" style="rounded=0;whiteSpace=wrap;html=1;strokeColor=#f0f0f0;align=left;" vertex="1" parent="1">
                    <mxGeometry x="300" y="490" width="120" height="20" as="geometry"/>
                </mxCell>
                <mxCell id="19" value="UserClient" style="rounded=0;whiteSpace=wrap;html=1;strokeColor=#f0f0f0;" vertex="1" parent="1">
                    <mxGeometry x="60" y="410" width="120" height="20" as="geometry"/>
                </mxCell>
                <mxCell id="21" value="" style="endArrow=none;dashed=1;html=1;entryX=0.467;entryY=1;entryDx=0;entryDy=0;exitX=0.5;exitY=0;exitDx=0;exitDy=0;entryPerimeter=0;" edge="1" parent="1" source="19" target="9">
                    <mxGeometry width="50" height="50" relative="1" as="geometry">
                        <mxPoint x="330" y="380" as="sourcePoint"/>
                        <mxPoint x="380" y="330" as="targetPoint"/>
                    </mxGeometry>
                </mxCell>
                <mxCell id="22" value="" style="triangle;whiteSpace=wrap;html=1;strokeColor=#f0f0f0;rotation=-91;" vertex="1" parent="1">
                    <mxGeometry x="106.12" y="264.94" width="27.37" height="17.63" as="geometry"/>
                </mxCell>
                <mxCell id="23" value="" style="triangle;whiteSpace=wrap;html=1;strokeColor=#f0f0f0;" vertex="1" parent="1">
                    <mxGeometry x="280" y="380" width="20" height="20" as="geometry"/>
                </mxCell>
                <mxCell id="24" value="" style="triangle;whiteSpace=wrap;html=1;strokeColor=#f0f0f0;" vertex="1" parent="1">
                    <mxGeometry x="280" y="470" width="20" height="20" as="geometry"/>
                </mxCell>
                <mxCell id="25" value="" style="endArrow=none;dashed=1;html=1;exitX=0;exitY=0.5;exitDx=0;exitDy=0;" edge="1" parent="1" source="24">
                    <mxGeometry width="50" height="50" relative="1" as="geometry">
                        <mxPoint x="370" y="380" as="sourcePoint"/>
                        <mxPoint x="180" y="420" as="targetPoint"/>
                    </mxGeometry>
                </mxCell>
                <mxCell id="26" value="" style="endArrow=none;dashed=1;html=1;entryX=1;entryY=0.5;entryDx=0;entryDy=0;exitX=0;exitY=0.5;exitDx=0;exitDy=0;" edge="1" parent="1" source="23" target="19">
                    <mxGeometry width="50" height="50" relative="1" as="geometry">
                        <mxPoint x="370" y="380" as="sourcePoint"/>
                        <mxPoint x="420" y="330" as="targetPoint"/>
                    </mxGeometry>
                </mxCell>
            </root>
        </mxGraphModel>
    </diagram>
</mxfile>